<svg width="16" height="16" viewBox="0 0 16 16" fill="none" xmlns="http://www.w3.org/2000/svg">
<path d="M8 1.49994C11.589 1.49994 14.5 4.40994 14.5 7.99994C14.5 11.5899 11.589 14.4999 8 14.4999C4.41 14.4999 1.5 11.5899 1.5 7.99994C1.5 4.40994 4.41 1.49994 8 1.49994ZM8 2.99994C5.23843 2.99994 3 5.23837 3 7.99994C3 10.7615 5.23843 12.9999 8 12.9999C10.761 12.9999 13 10.7611 13 7.99994C13 5.23875 10.761 2.99994 8 2.99994ZM7.57025 4.67994C7.98446 4.67994 8.32025 5.01573 8.32025 5.42994V7.83903L10.6967 8.64354C11.0891 8.77636 11.2995 9.20209 11.1666 9.59443C11.0338 9.98677 10.6081 10.1972 10.2158 10.0643L7.32976 9.08734C7.0252 8.98423 6.82025 8.69847 6.82025 8.37694V5.42994C6.82025 5.01573 7.15604 4.67994 7.57025 4.67994Z" fill="#99A2AD"/>
</svg>
